<svg width="24" height="24" viewBox="0 0 24 24" fill="none" xmlns="http://www.w3.org/2000/svg">
<rect width="24" height="24" rx="12" fill="#EE3535"/>
<path d="M11.1862 6.17336C11.704 5.94284 12.2954 5.94289 12.8132 6.17336C13.1788 6.33614 13.4399 6.63286 13.6608 6.94549C13.8837 7.26094 14.1286 7.68648 14.4251 8.20005L17.6582 13.8003C17.9547 14.3139 18.2009 14.7386 18.3626 15.0894C18.5229 15.437 18.6499 15.8113 18.6081 16.2092C18.5488 16.773 18.2525 17.285 17.7943 17.618C17.4706 17.8532 17.0834 17.9307 16.7025 17.9657C16.3181 18.001 15.8271 18.0002 15.2344 18.0002H8.76564C8.17294 18.0002 7.68197 18.001 7.29754 17.9657C6.9166 17.9307 6.52943 17.8532 6.20575 17.618C5.74741 17.2849 5.4512 16.7729 5.39194 16.2092C5.35017 15.8112 5.47713 15.437 5.63739 15.0894C5.79912 14.7386 6.04532 14.3139 6.34181 13.8003L9.57554 8.1994C9.87184 7.68619 10.1171 7.26082 10.3399 6.94549C10.5606 6.63308 10.8207 6.33615 11.1862 6.17336ZM12.2715 7.39146C12.0989 7.31461 11.9011 7.31461 11.7285 7.39146C11.6983 7.40497 11.6091 7.45864 11.4284 7.71437C11.2493 7.96788 11.0399 8.33006 10.7305 8.86607L7.49676 14.467C7.18711 15.0033 6.97835 15.366 6.84833 15.648C6.71705 15.9327 6.71469 16.0369 6.71812 16.0698C6.73785 16.2576 6.83664 16.4288 6.9896 16.5399C7.01642 16.5593 7.1077 16.6089 7.41929 16.6376C7.72832 16.6659 8.14666 16.6668 8.76564 16.6668H15.2344C15.8532 16.6668 16.2711 16.6659 16.5801 16.6376C16.8921 16.6089 16.9837 16.5593 17.0104 16.5399C17.1635 16.4287 17.2622 16.2575 17.2819 16.0698C17.2854 16.0368 17.2829 15.9327 17.1517 15.648C17.0217 15.366 16.8129 15.0033 16.5033 14.467L13.2702 8.86672C12.9606 8.33047 12.7508 7.9686 12.5716 7.71503C12.3912 7.45967 12.302 7.40517 12.2715 7.39146ZM11.3334 12.6668V10.0002C11.3334 9.63201 11.6318 9.33352 12 9.33352C12.3682 9.33352 12.6667 9.63201 12.6667 10.0002V12.6668C12.6667 13.035 12.3682 13.3335 12 13.3335C11.6318 13.3335 11.3334 13.035 11.3334 12.6668ZM12.7005 14.7333C12.7005 15.1009 12.4029 15.3992 12.0352 15.3999L11.9681 15.4006C11.7911 15.4009 11.6214 15.3303 11.4961 15.2053C11.3709 15.0803 11.3002 14.9109 11.3001 14.7339V14.6668C11.3002 14.2987 11.5986 14.0002 11.9668 14.0002H12.0339C12.402 14.0002 12.7005 14.2987 12.7005 14.6668V14.7333Z" fill="white"/>
</svg>
