<svg width="16" height="16" viewBox="0 0 16 16" fill="none" xmlns="http://www.w3.org/2000/svg">
<path d="M14.8892 7.54215C14.8193 7.49577 14.7319 7.48746 14.6548 7.5192L12.8982 8.24405C11.6885 8.74327 10.3925 9.00016 9.08372 9.00016H6.91628C5.60755 9.00016 4.31154 8.74327 3.10176 8.24405L1.34521 7.5192C1.26758 7.48698 1.18018 7.49577 1.11084 7.54215C1.0415 7.58903 1 7.66666 1 7.75016V8.25016C1 8.33541 1.04338 8.41481 1.11513 8.46085L2.13721 9.11686C3.54639 10.0216 5.18701 10.5002 6.88086 10.5002H9.11914C10.813 10.5002 12.4536 10.0216 13.8628 9.11686L14.8849 8.46085C14.9566 8.41481 15 8.33541 15 8.25016V7.75016C15 7.66666 14.9585 7.58903 14.8892 7.54215Z" fill="#B2B2B2"/>
<path d="M11.9967 10.5419C11.9788 11.8041 11.1706 12.916 9.97021 13.3163L9.4949 13.4745C9.48102 13.2106 9.2674 12.9998 9 12.9998H7C6.7326 12.9998 6.51898 13.2106 6.5051 13.4745L6.02979 13.3163C4.82944 12.916 4.02124 11.8041 4.00333 10.5419C3.66217 10.4314 3.32629 10.3055 3 10.1558V10.4998C3 12.2108 4.09033 13.7235 5.71338 14.2645L6.69977 14.5933C6.8822 14.8385 7.17166 14.9998 7.5 14.9998H8.5C8.82834 14.9998 9.1178 14.8385 9.30023 14.5933L10.2866 14.2645C11.9097 13.7235 13 12.2108 13 10.4998V10.1558C12.6737 10.3055 12.3378 10.4314 11.9967 10.5419Z" fill="#B2B2B2"/>
<path d="M10 1.84912V4.49985C10 5.05212 9.55228 5.49985 9 5.49985H7C6.44772 5.49985 6 5.05212 6 4.49985V1.84912C3.74786 2.6481 2.11444 4.75055 2.01245 7.2532L3.29404 7.78214C4.44885 8.2583 5.66754 8.49985 6.9165 8.49985H9.0835C10.3305 8.49985 11.5473 8.25879 12.701 7.78409L13.9875 7.25308C13.8855 4.75046 12.2521 2.6481 10 1.84912Z" fill="#B2B2B2"/>
<path d="M9 5H7C6.72386 5 6.5 4.77614 6.5 4.5V2C6.5 1.44772 6.94772 1 7.5 1H8.5C9.05229 1 9.5 1.44772 9.5 2V4.5C9.5 4.77614 9.27614 5 9 5Z" fill="#B2B2B2"/>
</svg>
