<svg width="16" height="16" viewBox="0 0 16 16" fill="none" xmlns="http://www.w3.org/2000/svg">
<path d="M3.37633 14.004C4.54537 13.9897 5.48148 13.0305 5.4672 11.8617C5.45292 10.6928 4.49365 9.75679 3.32461 9.77107C2.15558 9.78536 1.21946 10.7445 1.23374 11.9134C1.24803 13.0823 2.20729 14.0182 3.37633 14.004Z" fill="white"/>
<path d="M13.0365 14.0044C14.2055 13.9901 15.1416 13.031 15.1274 11.8621C15.1131 10.6932 14.1538 9.75722 12.9848 9.7715C11.8157 9.78578 10.8796 10.7449 10.8939 11.9138C10.9082 13.0827 11.8675 14.0187 13.0365 14.0044Z" fill="white"/>
<path d="M8.70154 3.66429C8.82138 3.78616 8.98302 3.85514 9.15186 3.85647L10.2491 7.90428C10.4471 8.63406 10.2699 9.42379 9.76159 9.97399C9.76159 9.97399 9.10866 10.6948 8.13118 10.6959C7.82279 10.6937 7.52778 10.5666 7.31054 10.3423C7.09329 10.1181 6.97145 9.81484 6.9716 9.49887C6.97154 9.0615 7.01923 8.6255 7.11378 8.199C7.23572 7.70958 7.31529 7.5499 7.46157 7.24286C7.93896 7.17591 8.12325 6.45622 7.77026 5.87015C7.40005 5.25384 6.58854 5.18324 5.61023 5.53398C4.63193 5.88472 3.71789 5.69562 2.45468 5.47431C1.18464 5.25187 0.985859 7.24847 1.90319 7.24847H2.45769C1.8021 7.64842 1.26952 8.22924 0.920785 8.92457C0.880853 9.00333 0.856462 9.08938 0.849005 9.1778C0.841548 9.26622 0.851172 9.35528 0.877326 9.43989C0.903481 9.52449 0.945653 9.60299 1.00143 9.67089C1.05721 9.73879 1.12551 9.79476 1.20241 9.8356C1.27581 9.8734 1.35888 9.88682 1.44007 9.87402C1.52127 9.86122 1.59655 9.82282 1.65547 9.76416C1.96056 9.44634 2.33757 9.21066 2.75298 9.07809C3.01189 8.99872 3.28032 8.95667 3.55055 8.95315C4.25651 8.95396 4.93333 9.24168 5.4325 9.75317C5.93166 10.2647 6.2124 10.9582 6.21313 11.6815C6.21313 11.7375 6.21149 11.794 6.20821 11.851C6.20701 11.8701 6.20966 11.8893 6.21599 11.9073C6.22232 11.9254 6.2322 11.9419 6.24502 11.9559C6.25783 11.9698 6.27331 11.981 6.2905 11.9885C6.30768 11.9961 6.3262 12 6.34492 12H9.43458C9.61011 11.9949 9.778 11.9253 9.90757 11.8038C10.0371 11.6824 10.1197 11.5173 10.1403 11.3386C10.2045 10.8205 10.4123 10.3322 10.7393 9.93155C11.0662 9.53092 11.4985 9.23482 11.9848 9.07837C12.2437 8.999 12.5121 8.95695 12.7823 8.95343C13.3973 8.95287 13.9933 9.17145 14.4683 9.5717C14.6618 9.73447 14.9366 9.50559 14.8177 9.27979L14.8144 9.27391C14.4194 8.55609 13.8194 7.97931 13.0951 7.62106C12.9915 7.56951 12.8865 7.52329 12.781 7.48099C12.7454 5.60738 10.6229 3.85731 10.6229 3.85731C11.193 3.89149 11.2129 3.30991 11.2129 3.30991C11.2479 2.60479 10.782 2.03974 10.1392 2.00108C9.97727 1.99247 9.81675 2.03564 9.67984 2.12462L9.30799 2.36386C9.1835 2.44602 9.0521 2.51662 8.91535 2.57481C8.82124 2.61382 8.73736 2.67489 8.67046 2.75312C8.60355 2.83135 8.55548 2.92457 8.5301 3.02528C8.5301 3.02528 8.35867 3.07739 8.29578 3.13734C8.2513 3.17628 8.21877 3.22758 8.2021 3.28504C8.18544 3.34249 8.18535 3.40367 8.20185 3.46118C8.21836 3.51868 8.25074 3.57007 8.29511 3.60915C8.33948 3.64822 8.39393 3.67331 8.4519 3.68138C8.4519 3.68138 8.5394 3.69651 8.70154 3.66429Z" fill="white"/>
</svg>
