<svg width="16" height="16" viewBox="0 0 16 16" fill="none" xmlns="http://www.w3.org/2000/svg">
<path d="M9.61998 12.5467C9.49331 12.5467 9.36664 12.5 9.26664 12.4C9.07331 12.2067 9.07331 11.8867 9.26664 11.6933L12.96 8L9.26664 4.30667C9.07331 4.11334 9.07331 3.79334 9.26664 3.6C9.45998 3.40667 9.77998 3.40667 9.97331 3.6L14.02 7.64667C14.2133 7.84 14.2133 8.16 14.02 8.35333L9.97331 12.4C9.87331 12.5 9.74664 12.5467 9.61998 12.5467Z" fill="#318AE3"/>
<path d="M13.5533 8.5H2.33331C2.05998 8.5 1.83331 8.27333 1.83331 8C1.83331 7.72667 2.05998 7.5 2.33331 7.5H13.5533C13.8266 7.5 14.0533 7.72667 14.0533 8C14.0533 8.27333 13.8266 8.5 13.5533 8.5Z" fill="#318AE3"/>
</svg>
