<svg width="19" height="18" viewBox="0 0 19 18" fill="none" xmlns="http://www.w3.org/2000/svg">
<path d="M8.41702 0.557465C8.78383 -0.185781 9.84367 -0.185781 10.2105 0.557464L12.3139 4.81944C12.4596 5.11459 12.7411 5.31916 13.0668 5.36648L17.7702 6.04992C18.5904 6.16911 18.9179 7.17708 18.3244 7.75562L14.921 11.0731C14.6853 11.3028 14.5778 11.6338 14.6334 11.9582L15.4369 16.6426C15.577 17.4595 14.7195 18.0825 13.9859 17.6968L9.77909 15.4851C9.48777 15.332 9.13973 15.332 8.84841 15.4851L4.64159 17.6968C3.90796 18.0825 3.05053 17.4595 3.19064 16.6426L3.99407 11.9582C4.04971 11.6338 3.94216 11.3028 3.70647 11.0731L0.30308 7.75562C-0.290437 7.17708 0.0370723 6.16911 0.857293 6.04992L5.56067 5.36648C5.88638 5.31916 6.16794 5.11459 6.3136 4.81944L8.41702 0.557465Z" fill="#EFC51D"/>
</svg>
