<svg width="24" height="24" viewBox="0 0 24 24" fill="none" xmlns="http://www.w3.org/2000/svg">
<path d="M6.8057 14.8994C6.8057 14.3385 6.80171 14.1641 6.7764 14.0342C6.65777 13.4258 6.1953 12.962 5.6182 12.8447C5.49594 12.8199 5.33028 12.8164 4.77738 12.8164C4.22485 12.8164 4.05975 12.8199 3.93753 12.8447C3.36031 12.962 2.89796 13.4259 2.77933 14.0342C2.75403 14.164 2.75004 14.338 2.75003 14.8994V17.166C2.75003 17.7275 2.75405 17.9014 2.77933 18.0312C2.89804 18.64 3.36073 19.1045 3.93753 19.2217C4.05975 19.2465 4.22486 19.25 4.77738 19.25C5.33028 19.25 5.49594 19.2465 5.6182 19.2217C6.19488 19.1045 6.65768 18.64 6.7764 18.0312C6.8017 17.9013 6.8057 17.727 6.8057 17.166V14.8994ZM21.25 14.8994C21.25 14.3384 21.2461 14.1641 21.2207 14.0342C21.1021 13.4258 20.6397 12.9619 20.0625 12.8447C19.9403 12.8199 19.7753 12.8164 19.2227 12.8164C18.6698 12.8164 18.5041 12.8199 18.3819 12.8447C17.8047 12.962 17.3423 13.4259 17.2237 14.0342C17.1984 14.164 17.1944 14.338 17.1944 14.8994V17.166C17.1944 17.7275 17.1984 17.9014 17.2237 18.0312C17.3424 18.6399 17.8051 19.1045 18.3819 19.2217C18.5041 19.2465 18.6698 19.25 19.2227 19.25C19.7753 19.25 19.9403 19.2465 20.0625 19.2217C20.6393 19.1046 21.102 18.6401 21.2207 18.0312C21.246 17.9013 21.25 17.727 21.25 17.166V14.8994ZM22.75 17.166C22.75 17.6575 22.7534 18.0105 22.6934 18.3184C22.4614 19.5077 21.5466 20.4507 20.3604 20.6914C20.0534 20.7537 19.7021 20.75 19.2227 20.75C18.743 20.75 18.3911 20.7537 18.084 20.6914C16.8979 20.4507 15.983 19.5078 15.751 18.3184C15.691 18.0105 15.6944 17.6571 15.6944 17.166V14.8994C15.6944 14.4084 15.691 14.0549 15.751 13.7471C15.9831 12.5572 16.8983 11.6156 18.084 11.375C18.3726 11.3165 18.7003 11.3162 19.1368 11.3164C19.0694 11.204 19.0275 11.0741 19.0274 10.9336C19.0274 6.95239 15.8675 3.75 12 3.75C8.13262 3.75 4.97269 6.95239 4.97269 10.9336C4.97261 11.0743 4.92985 11.2039 4.86234 11.3164C5.29928 11.3162 5.62729 11.3164 5.91605 11.375C7.1018 11.6156 8.01703 12.5573 8.24906 13.7471C8.30904 14.0549 8.3057 14.408 8.3057 14.8994V17.166C8.3057 17.6575 8.30902 18.0106 8.24906 18.3184C8.01711 19.5077 7.10222 20.4507 5.91605 20.6914C5.60898 20.7537 5.25704 20.75 4.77738 20.75C4.29799 20.75 3.94665 20.7537 3.63968 20.6914C2.45355 20.4508 1.53864 19.5078 1.30668 18.3184C1.24668 18.0105 1.25003 17.6571 1.25003 17.166V14.8994C1.25003 14.4084 1.24667 14.055 1.30668 13.7471C1.53757 12.5631 2.44495 11.6252 3.6221 11.3789C3.52929 11.2541 3.47279 11.101 3.47269 10.9336C3.47269 6.15208 7.27636 2.25 12 2.25C16.7237 2.25 20.5274 6.15208 20.5274 10.9336C20.5273 11.1012 20.47 11.2541 20.377 11.3789C21.5547 11.6249 22.4625 12.5628 22.6934 13.7471C22.7534 14.0549 22.75 14.408 22.75 14.8994V17.166Z" fill="#2D2D2E"/>
</svg>
