<svg width="40" height="40" viewBox="0 0 40 40" fill="none" xmlns="http://www.w3.org/2000/svg">
<g clip-path="url(#clip0_3206_8870)">
<path d="M20 40C31.0457 40 40 31.0457 40 20C40 8.9543 31.0457 0 20 0C8.9543 0 0 8.9543 0 20C0 31.0457 8.9543 40 20 40Z" fill="url(#paint0_linear_3206_8870)"/>
<path d="M20 40C31.0457 40 40 31.0457 40 20C40 8.9543 31.0457 0 20 0C8.9543 0 0 8.9543 0 20C0 31.0457 8.9543 40 20 40Z" fill="url(#paint1_radial_3206_8870)"/>
<g filter="url(#filter0_d_3206_8870)">
<path d="M37.1858 18.0439C37.1514 17.7914 36.9501 17.5843 36.6882 17.5308C35.7645 17.3419 34.841 17.1515 33.9178 16.96C33.4877 16.8708 33.1405 16.5571 33.0053 16.1433C32.7334 15.311 32.3777 14.5089 31.9496 13.745C31.7302 13.3534 31.7404 12.8789 31.9816 12.5128C32.469 11.7735 32.9501 11.04 33.4237 10.3122C33.5598 10.1034 33.5352 9.81988 33.3633 9.60878C32.9263 9.07222 32.4561 8.55011 31.9528 8.04683C31.4495 7.5437 30.9273 7.07316 30.3908 6.63644C30.1798 6.46441 29.8963 6.44019 29.6874 6.57605C28.9598 7.04972 28.2261 7.53066 27.4869 8.01808C27.1209 8.25941 26.6465 8.26956 26.2548 8.05003C25.4908 7.62206 24.6887 7.26636 23.8564 6.99433C23.4426 6.85933 23.1289 6.51191 23.0397 6.08191C22.8482 5.15878 22.6577 4.23503 22.4688 3.31159C22.4152 3.04948 22.2082 2.84847 21.9557 2.81402C21.3133 2.72675 20.6613 2.68113 19.9998 2.68097C19.3383 2.68105 18.6863 2.72652 18.0438 2.81402C17.7914 2.84847 17.5843 3.04948 17.5307 3.31159C17.342 4.23527 17.1514 5.15878 16.9598 6.08191C16.8707 6.51206 16.557 6.85941 16.1431 6.99433C15.3109 7.26628 14.5088 7.62183 13.7448 8.05003C13.3531 8.26941 12.8786 8.25925 12.5127 8.01808C11.7734 7.53081 11.0397 7.04964 10.3121 6.57605C10.1032 6.43995 9.81969 6.46441 9.60875 6.63644C9.07219 7.07323 8.55008 7.5437 8.04672 8.04683C7.54344 8.55003 7.07321 9.07214 6.63625 9.60878C6.46446 9.81988 6.43985 10.1034 6.57586 10.3122C7.04946 11.0399 7.53055 11.7735 8.0179 12.5128C8.25907 12.8789 8.2693 13.3532 8.04993 13.745C7.62196 14.5091 7.2661 15.311 6.99422 16.1433C6.85907 16.557 6.51188 16.8707 6.08172 16.96C5.15852 17.1514 4.235 17.342 3.31141 17.5308C3.04954 17.5844 2.84821 17.7915 2.81383 18.0439C2.72649 18.6864 2.68079 19.3385 2.68079 19.9999C2.68079 20.6613 2.72649 21.3135 2.81383 21.9558C2.84821 22.2082 3.04954 22.4154 3.31141 22.4689C4.23508 22.6578 5.15852 22.8482 6.0818 23.0398C6.51196 23.1291 6.85915 23.4427 6.9943 23.8564C7.26618 24.6887 7.62204 25.4909 8.05 26.2548C8.26946 26.6466 8.25922 27.1208 8.01797 27.4869C7.53063 28.2261 7.04954 28.9597 6.57594 29.6875C6.43985 29.8965 6.46446 30.1797 6.63633 30.391C7.07329 30.9274 7.54344 31.4497 8.0468 31.9529C8.55008 32.456 9.07227 32.9265 9.60883 33.3633C9.81985 33.5352 10.1033 33.56 10.3122 33.4237C11.0398 32.9501 11.7735 32.4689 12.5127 31.9817C12.8787 31.7407 13.3531 31.7303 13.7448 31.9497C14.5088 32.3776 15.3109 32.7335 16.1432 33.0053C16.557 33.1404 16.8707 33.4875 16.9599 33.9178C17.1515 34.8409 17.342 35.7646 17.5308 36.6882C17.5844 36.9501 17.7915 37.1515 18.0439 37.1857C18.6863 37.2731 19.3384 37.3189 19.9998 37.3188C20.6613 37.3186 21.3134 37.2732 21.9558 37.1857C22.2082 37.1514 22.4153 36.9501 22.4689 36.6882C22.6577 35.7646 22.8482 34.841 23.0398 33.9178C23.129 33.4877 23.4427 33.1405 23.8565 33.0053C24.6888 32.7335 25.4909 32.3777 26.2548 31.9496C26.6466 31.7302 27.121 31.7405 27.487 31.9816C28.2262 32.4689 28.96 32.9502 29.6875 33.4236C29.8964 33.5598 30.1799 33.535 30.3909 33.3632C30.9274 32.9264 31.4496 32.4561 31.9529 31.9528C32.4563 31.4497 32.9264 30.9271 33.3634 30.3909C33.5352 30.18 33.5598 29.8963 33.4238 29.6875C32.9501 28.9598 32.4691 28.226 31.9817 27.4868C31.7405 27.121 31.7303 26.6464 31.9497 26.2547C32.3777 25.4907 32.7334 24.6885 33.0054 23.8564C33.1405 23.4425 33.4877 23.1289 33.9179 23.0397C34.8411 22.8482 35.7646 22.6576 36.6883 22.4689C36.9501 22.4153 37.1515 22.2082 37.1859 21.9557C37.2732 21.3133 37.3189 20.6613 37.3189 19.9998C37.3189 19.3385 37.2731 18.6862 37.1858 18.0439Z" fill="url(#paint2_linear_3206_8870)"/>
</g>
<path d="M32.332 20C32.3009 26.5938 26.5936 32.3006 20 32.332C13.4064 32.3009 7.69906 26.5936 7.66797 20C7.69906 13.4065 13.4064 7.69914 20 7.66797C26.5936 7.6993 32.3009 13.4062 32.332 20Z" fill="url(#paint3_linear_3206_8870)"/>
<g filter="url(#filter1_d_3206_8870)">
<path d="M32.332 20C32.3009 26.5938 26.5936 32.3006 20 32.332C13.4064 32.3009 7.69906 26.5936 7.66797 20C7.69906 13.4065 13.4064 7.69914 20 7.66797C26.5936 7.6993 32.3009 13.4062 32.332 20Z" fill="url(#paint4_radial_3206_8870)" shape-rendering="crispEdges"/>
</g>
<path d="M29.0087 20C28.9917 24.8571 24.8572 28.9916 19.9999 29.0088C15.1427 28.9918 11.0081 24.8572 10.9911 20C11.0081 15.1428 15.1427 11.0082 19.9999 10.9912C24.8572 11.0082 28.9918 15.1427 29.0087 20Z" fill="url(#paint5_linear_3206_8870)"/>
<path d="M29.0087 20C28.9917 24.8571 24.8572 28.9916 19.9999 29.0088C15.1427 28.9918 11.0081 24.8572 10.9911 20C11.0081 15.1428 15.1427 11.0082 19.9999 10.9912C24.8572 11.0082 28.9918 15.1427 29.0087 20Z" fill="url(#paint6_radial_3206_8870)"/>
<path d="M13.0068 13.0067C9.158 16.8585 9.15808 23.1412 13.0068 26.9931C16.8587 30.8418 23.1413 30.8418 26.9932 26.9931C30.8419 23.1412 30.8421 16.8586 26.9932 13.0067C23.1414 9.15788 16.8588 9.15796 13.0068 13.0067ZM16.7332 15.0321C16.1305 14.4291 16.3363 13.3971 17.1276 13.0729C18.9611 12.3219 21.0389 12.322 22.8724 13.0729C23.6637 13.3971 23.8695 14.429 23.2668 15.0321C22.9091 15.3902 22.5511 15.7487 22.1926 16.1074C22.0743 16.2258 21.8955 16.2554 21.7425 16.1869C20.6407 15.6937 19.3593 15.6936 18.2575 16.1869C18.1044 16.2555 17.9257 16.2258 17.8074 16.1074C17.4489 15.7487 17.0908 15.3901 16.7332 15.0321ZM13.0729 22.8723C12.322 21.0388 12.322 18.9612 13.0729 17.1276C13.3971 16.3362 14.4291 16.1305 15.0321 16.7331C15.3903 17.0908 15.7487 17.4489 16.1075 17.8073C16.2259 17.9257 16.2555 18.1044 16.187 18.2575C15.6937 19.3592 15.6936 20.6407 16.187 21.7423C16.2555 21.8954 16.2259 22.0741 16.1075 22.1925C15.7487 22.5509 15.3903 22.9091 15.0321 23.2667C14.4291 23.8694 13.3971 23.6637 13.0729 22.8723ZM23.2669 24.9677C23.8696 25.5709 23.6638 26.603 22.8725 26.927C21.0389 27.678 18.9611 27.678 17.1276 26.927C16.3363 26.603 16.1304 25.5709 16.7332 24.9677C17.0909 24.6097 17.4489 24.2512 17.8074 23.8924C17.9257 23.7741 18.1045 23.7443 18.2575 23.8129C19.3593 24.3062 20.6407 24.3062 21.7425 23.8129C21.8955 23.7443 22.0743 23.774 22.1926 23.8924C22.5511 24.2512 22.9092 24.6096 23.2669 24.9677ZM26.9271 17.1275C27.6781 18.961 27.6781 21.0389 26.9271 22.8723C26.603 23.6637 25.571 23.8694 24.9679 23.2667C24.6098 22.9091 24.2514 22.5509 23.8926 22.1925C23.7742 22.0741 23.7446 21.8954 23.8131 21.7423C24.3064 20.6405 24.3064 19.359 23.8131 18.2575C23.7446 18.1042 23.7742 17.9257 23.8926 17.8073C24.2514 17.4489 24.6098 17.0908 24.9679 16.7331C25.571 16.1303 26.6029 16.3362 26.9271 17.1275Z" fill="url(#paint7_linear_3206_8870)"/>
<path d="M20 23.0029C18.3672 22.9993 17.0008 21.6328 16.9971 20C17.0008 18.3672 18.3672 17.0008 20 16.9971C21.6329 17.0007 22.9992 18.3673 23.003 20C22.9992 21.6328 21.6328 22.9992 20 23.0029Z" fill="url(#paint8_linear_3206_8870)"/>
</g>
<defs>
<filter id="filter0_d_3206_8870" x="-1.05255" y="0.814303" width="42.1047" height="42.1045" filterUnits="userSpaceOnUse" color-interpolation-filters="sRGB">
<feFlood flood-opacity="0" result="BackgroundImageFix"/>
<feColorMatrix in="SourceAlpha" type="matrix" values="0 0 0 0 0 0 0 0 0 0 0 0 0 0 0 0 0 0 127 0" result="hardAlpha"/>
<feOffset dy="1.86667"/>
<feGaussianBlur stdDeviation="1.86667"/>
<feComposite in2="hardAlpha" operator="out"/>
<feColorMatrix type="matrix" values="0 0 0 0 0 0 0 0 0 0 0 0 0 0 0 0 0 0 0.1 0"/>
<feBlend mode="normal" in2="BackgroundImageFix" result="effect1_dropShadow_3206_8870"/>
<feBlend mode="normal" in="SourceGraphic" in2="effect1_dropShadow_3206_8870" result="shape"/>
</filter>
<filter id="filter1_d_3206_8870" x="3.93464" y="3.93464" width="32.1307" height="32.1307" filterUnits="userSpaceOnUse" color-interpolation-filters="sRGB">
<feFlood flood-opacity="0" result="BackgroundImageFix"/>
<feColorMatrix in="SourceAlpha" type="matrix" values="0 0 0 0 0 0 0 0 0 0 0 0 0 0 0 0 0 0 127 0" result="hardAlpha"/>
<feOffset/>
<feGaussianBlur stdDeviation="1.86667"/>
<feComposite in2="hardAlpha" operator="out"/>
<feColorMatrix type="matrix" values="0 0 0 0 0 0 0 0 0 0 0 0 0 0 0 0 0 0 0.25 0"/>
<feBlend mode="normal" in2="BackgroundImageFix" result="effect1_dropShadow_3206_8870"/>
<feBlend mode="normal" in="SourceGraphic" in2="effect1_dropShadow_3206_8870" result="shape"/>
</filter>
<linearGradient id="paint0_linear_3206_8870" x1="31.6667" y1="-1.33334" x2="-1.62565" y2="37.7017" gradientUnits="userSpaceOnUse">
<stop stop-color="#FFC96B"/>
<stop offset="1" stop-color="#EC7F37"/>
</linearGradient>
<radialGradient id="paint1_radial_3206_8870" cx="0" cy="0" r="1" gradientUnits="userSpaceOnUse" gradientTransform="translate(20.0791 21.9014) scale(20)">
<stop stop-color="#E07000" stop-opacity="0.8"/>
<stop offset="0.1296" stop-color="#DC8800" stop-opacity="0.696"/>
<stop offset="0.3409" stop-color="#D17A00" stop-opacity="0.527"/>
<stop offset="0.6076" stop-color="#C09A00" stop-opacity="0.314"/>
<stop offset="0.9166" stop-color="#D69900" stop-opacity="0.067"/>
<stop offset="1" stop-color="#E5D200" stop-opacity="0"/>
</radialGradient>
<linearGradient id="paint2_linear_3206_8870" x1="-50.6666" y1="73.6666" x2="35.1952" y2="4.80473" gradientUnits="userSpaceOnUse">
<stop stop-color="#FF6A00"/>
<stop offset="1" stop-color="#FFF3EA"/>
</linearGradient>
<linearGradient id="paint3_linear_3206_8870" x1="-9.89203" y1="49.892" x2="42.0312" y2="-2.03117" gradientUnits="userSpaceOnUse">
<stop stop-color="#F6C172"/>
<stop offset="1" stop-color="white"/>
</linearGradient>
<radialGradient id="paint4_radial_3206_8870" cx="0" cy="0" r="1" gradientUnits="userSpaceOnUse" gradientTransform="translate(20 20) scale(16.2317)">
<stop stop-color="#FF6A00" stop-opacity="0.415686"/>
<stop offset="0.4183" stop-color="#E00B00" stop-opacity="0.335"/>
<stop offset="0.569" stop-color="#FF6A00" stop-opacity="0.455"/>
<stop offset="0.6763" stop-color="#FF6A00" stop-opacity="0.541"/>
<stop offset="0.7632" stop-color="#FF6A00" stop-opacity="0.611"/>
<stop offset="0.8376" stop-color="#FF6A00" stop-opacity="0.67"/>
<stop offset="0.9035" stop-color="#FF6A00" stop-opacity="0.723"/>
<stop offset="0.9615" stop-color="#FF6A00" stop-opacity="0.769"/>
<stop offset="1" stop-color="#E00B00" stop-opacity="0.8"/>
</radialGradient>
<linearGradient id="paint5_linear_3206_8870" x1="3.74382" y1="36.2561" x2="34.117" y2="5.88293" gradientUnits="userSpaceOnUse">
<stop stop-color="#FF4D00"/>
<stop offset="0.2462" stop-color="#F68827"/>
<stop offset="0.5952" stop-color="#EAAC5A"/>
<stop offset="0.8572" stop-color="#F2BE79"/>
<stop offset="1" stop-color="#FFEB85"/>
</linearGradient>
<radialGradient id="paint6_radial_3206_8870" cx="0" cy="0" r="1" gradientUnits="userSpaceOnUse" gradientTransform="translate(20 20) scale(7.66663 7.66663)">
<stop stop-color="#FF6A00" stop-opacity="0"/>
<stop offset="0.343545" stop-color="#FF6A00" stop-opacity="0.638"/>
<stop offset="0.830433" stop-color="#FF6A00" stop-opacity="0.73"/>
<stop offset="0.9722" stop-color="#CF4D15" stop-opacity="0.8"/>
</radialGradient>
<linearGradient id="paint7_linear_3206_8870" x1="-28.6666" y1="63.3333" x2="31.0195" y2="9.00012" gradientUnits="userSpaceOnUse">
<stop stop-color="#FFAE00"/>
<stop offset="1" stop-color="white"/>
</linearGradient>
<linearGradient id="paint8_linear_3206_8870" x1="1.89074" y1="38.1093" x2="29.7126" y2="10.2874" gradientUnits="userSpaceOnUse">
<stop stop-color="#FF6A00"/>
<stop offset="1" stop-color="white"/>
</linearGradient>
<clipPath id="clip0_3206_8870">
<rect width="40" height="40" fill="white"/>
</clipPath>
</defs>
</svg>
