<svg width="24" height="24" viewBox="0 0 24 24" fill="none" xmlns="http://www.w3.org/2000/svg">
<path opacity="0.4" d="M20.1 6.93998C20.1 7.47998 19.81 7.96995 19.35 8.21995L17.61 9.15995L16.13 9.94999L13.06 11.61C12.73 11.79 12.37 11.88 12 11.88C11.63 11.88 11.27 11.79 10.94 11.61L4.64999 8.21995C4.18999 7.96995 3.89999 7.47998 3.89999 6.93998C3.89999 6.39998 4.18999 5.90995 4.64999 5.65995L6.62 4.59996L8.19 3.74998L10.94 2.27C11.6 1.91 12.4 1.91 13.06 2.27L19.35 5.65995C19.81 5.90995 20.1 6.39998 20.1 6.93998Z" fill="#8B8B8B"/>
<path opacity="0.4" d="M9.89999 12.7899L4.04999 9.85989C3.59999 9.62989 3.07999 9.65989 2.64999 9.91989C2.21999 10.1799 1.97 10.6399 1.97 11.1399V16.6699C1.97 17.6299 2.49999 18.4899 3.35999 18.9199L9.20999 21.8399C9.40999 21.9399 9.63001 21.9899 9.85001 21.9899C10.11 21.9899 10.37 21.9199 10.6 21.7699C11.03 21.5099 11.28 21.0499 11.28 20.5499V15.0199C11.29 14.0799 10.76 13.2199 9.89999 12.7899Z" fill="#8B8B8B"/>
<path opacity="0.4" d="M22.03 11.1502V16.6801C22.03 17.6301 21.5 18.4901 20.64 18.9201L14.79 21.8501C14.59 21.9501 14.37 22.0001 14.15 22.0001C13.89 22.0001 13.63 21.9302 13.39 21.7802C12.97 21.5202 12.71 21.0601 12.71 20.5601V15.0401C12.71 14.0801 13.24 13.2201 14.1 12.7901L16.25 11.7201L17.75 10.9701L19.95 9.87013C20.4 9.64013 20.92 9.66012 21.35 9.93012C21.77 10.1901 22.03 10.6502 22.03 11.1502Z" fill="#8B8B8B"/>
<path d="M22.6 21.64L21.84 20.88C22.24 20.28 22.47 19.56 22.47 18.79C22.47 16.68 20.76 14.97 18.65 14.97C16.54 14.97 14.83 16.68 14.83 18.79C14.83 20.9 16.54 22.61 18.65 22.61C19.42 22.61 20.14 22.38 20.74 21.98L21.5 22.74C21.65 22.89 21.85 22.97 22.05 22.97C22.25 22.97 22.45 22.89 22.6 22.74C22.9 22.43 22.9 21.94 22.6 21.64Z" fill="#8B8B8B"/>
</svg>
