<svg width="24" height="24" viewBox="0 0 24 24" fill="none" xmlns="http://www.w3.org/2000/svg">
<path d="M20.71 8.11998V17.53C20.71 19.99 18.7 22 16.24 22H7.76C5.3 22 3.29 19.99 3.29 17.53V8.11998C3.29 6.40998 4.25 4.91998 5.66 4.16998C6.15 3.90998 6.76 4.25998 6.76 4.81998C6.76 6.40998 8.06 7.70998 9.65 7.70998H14.35C15.94 7.70998 17.24 6.40998 17.24 4.81998C17.24 4.25998 17.84 3.90998 18.34 4.16998C19.75 4.91998 20.71 6.40998 20.71 8.11998Z" fill="white"/>
<path d="M14.35 2H9.65C8.61 2 7.76 2.84 7.76 3.88V4.82C7.76 5.86 8.6 6.7 9.64 6.7H14.35C15.39 6.7 16.23 5.86 16.23 4.82V3.88C16.24 2.84 15.39 2 14.35 2Z" fill="white"/>
</svg>
