<svg width="16" height="16" viewBox="0 0 16 16" fill="none" xmlns="http://www.w3.org/2000/svg">
<path d="M6.83337 6.68669C6.83337 7.04669 6.93337 7.10002 7.16004 7.18002L7.50004 7.30002V6.16669H7.30004C7.04671 6.16669 6.83337 6.40002 6.83337 6.68669Z" fill="white"/>
<path d="M8.5 9.83335H8.7C8.96 9.83335 9.16667 9.60001 9.16667 9.31335C9.16667 8.95335 9.06667 8.90001 8.84 8.82001L8.5 8.70001V9.83335Z" fill="white"/>
<path d="M13.0534 3.65331L11.6867 5.01998C11.5867 5.11998 11.46 5.16665 11.3334 5.16665C11.2067 5.16665 11.08 5.11998 10.98 5.01998C10.7867 4.82665 10.7867 4.50665 10.98 4.31331L12.3467 2.94665C11.1734 1.94665 9.66004 1.33331 8.00004 1.33331C4.32004 1.33331 1.33337 4.31998 1.33337 7.99998C1.33337 11.68 4.32004 14.6666 8.00004 14.6666C11.68 14.6666 14.6667 11.68 14.6667 7.99998C14.6667 6.33998 14.0534 4.82665 13.0534 3.65331ZM9.16671 7.87998C9.59337 8.03331 10.1667 8.33998 10.1667 9.31998C10.1667 10.1533 9.50671 10.84 8.70004 10.84H8.50004V11.0066C8.50004 11.28 8.27337 11.5066 8.00004 11.5066C7.72671 11.5066 7.50004 11.28 7.50004 11.0066V10.84H7.44671C6.56004 10.84 5.83337 10.0933 5.83337 9.17331C5.83337 8.89331 6.06004 8.66665 6.33337 8.66665C6.60671 8.66665 6.83337 8.89331 6.83337 9.16665C6.83337 9.53331 7.10671 9.83331 7.44671 9.83331H7.50004V8.35331L6.83337 8.11998C6.40671 7.96665 5.83337 7.65998 5.83337 6.67998C5.83337 5.84665 6.49337 5.15998 7.30004 5.15998H7.50004V4.99998C7.50004 4.72665 7.72671 4.49998 8.00004 4.49998C8.27337 4.49998 8.50004 4.72665 8.50004 4.99998V5.16665H8.55337C9.44004 5.16665 10.1667 5.91331 10.1667 6.83331C10.1667 7.10665 9.94004 7.33331 9.66671 7.33331C9.39337 7.33331 9.16671 7.10665 9.16671 6.83331C9.16671 6.46665 8.89337 6.16665 8.55337 6.16665H8.50004V7.64665L9.16671 7.87998Z" fill="white"/>
<path d="M15.1267 1.13998C15.0733 1.01998 14.98 0.91998 14.8533 0.866646C14.7933 0.846646 14.7333 0.833313 14.6667 0.833313H12C11.7267 0.833313 11.5 1.05998 11.5 1.33331C11.5 1.60665 11.7267 1.83331 12 1.83331H13.46L12.3467 2.94665C12.6 3.16665 12.8333 3.39998 13.0533 3.65331L14.1667 2.53998V3.99998C14.1667 4.27331 14.3933 4.49998 14.6667 4.49998C14.94 4.49998 15.1667 4.27331 15.1667 3.99998V1.33331C15.1667 1.26665 15.1533 1.20665 15.1267 1.13998Z" fill="white"/>
</svg>
