<svg width="39" height="39" viewBox="0 0 39 39" fill="none" xmlns="http://www.w3.org/2000/svg">
<g filter="url(#filter0_d_1640_675)">
<g filter="url(#filter1_i_1640_675)">
<circle cx="19.5" cy="18" r="15" fill="#37D1A5"/>
</g>
<g filter="url(#filter2_i_1640_675)">
<path d="M21.491 8.92871C21.491 8.45845 21.92 8.10254 22.3728 8.22949C26.8414 9.48246 30.1189 13.5842 30.1189 18.4531C30.1187 24.3176 25.3642 29.072 19.4998 29.0723C13.6351 29.0723 8.88084 24.3178 8.88062 18.4531C8.88062 13.584 12.1578 9.48223 16.6267 8.22949C17.0795 8.10265 17.5085 8.45849 17.5085 8.92871V10.5439C17.5085 10.8826 17.2799 11.1759 16.9607 11.2891C14.0119 12.3339 11.8992 15.1463 11.8992 18.4531C11.8994 22.6503 15.3026 26.0527 19.4998 26.0527C23.6968 26.0525 27.0991 22.6501 27.0994 18.4531C27.0994 15.1465 24.9872 12.3341 22.0388 11.2891C21.7196 11.1759 21.491 10.8826 21.491 10.5439V8.92871ZM19.4998 6C20.2327 6.00006 20.8268 6.5942 20.8269 7.32715V11.3096C20.8269 12.0426 20.2328 12.6367 19.4998 12.6367C18.7667 12.6367 18.1726 12.0427 18.1726 11.3096V7.32715C18.1727 6.59416 18.7667 6 19.4998 6Z" fill="#C4F2E5"/>
</g>
</g>
<defs>
<filter id="filter0_d_1640_675" x="0" y="0" width="39" height="39" filterUnits="userSpaceOnUse" color-interpolation-filters="sRGB">
<feFlood flood-opacity="0" result="BackgroundImageFix"/>
<feColorMatrix in="SourceAlpha" type="matrix" values="0 0 0 0 0 0 0 0 0 0 0 0 0 0 0 0 0 0 127 0" result="hardAlpha"/>
<feOffset dy="1.5"/>
<feGaussianBlur stdDeviation="2.25"/>
<feComposite in2="hardAlpha" operator="out"/>
<feColorMatrix type="matrix" values="0 0 0 0 0 0 0 0 0 0 0 0 0 0 0 0 0 0 0.15 0"/>
<feBlend mode="normal" in2="BackgroundImageFix" result="effect1_dropShadow_1640_675"/>
<feBlend mode="normal" in="SourceGraphic" in2="effect1_dropShadow_1640_675" result="shape"/>
</filter>
<filter id="filter1_i_1640_675" x="4.5" y="3" width="30" height="30" filterUnits="userSpaceOnUse" color-interpolation-filters="sRGB">
<feFlood flood-opacity="0" result="BackgroundImageFix"/>
<feBlend mode="normal" in="SourceGraphic" in2="BackgroundImageFix" result="shape"/>
<feColorMatrix in="SourceAlpha" type="matrix" values="0 0 0 0 0 0 0 0 0 0 0 0 0 0 0 0 0 0 127 0" result="hardAlpha"/>
<feOffset/>
<feGaussianBlur stdDeviation="3.75"/>
<feComposite in2="hardAlpha" operator="arithmetic" k2="-1" k3="1"/>
<feColorMatrix type="matrix" values="0 0 0 0 0 0 0 0 0 0 0 0 0 0 0 0 0 0 0.16 0"/>
<feBlend mode="normal" in2="shape" result="effect1_innerShadow_1640_675"/>
</filter>
<filter id="filter2_i_1640_675" x="8.88062" y="6" width="21.2383" height="24.5723" filterUnits="userSpaceOnUse" color-interpolation-filters="sRGB">
<feFlood flood-opacity="0" result="BackgroundImageFix"/>
<feBlend mode="normal" in="SourceGraphic" in2="BackgroundImageFix" result="shape"/>
<feColorMatrix in="SourceAlpha" type="matrix" values="0 0 0 0 0 0 0 0 0 0 0 0 0 0 0 0 0 0 127 0" result="hardAlpha"/>
<feOffset dy="1.5"/>
<feGaussianBlur stdDeviation="0.75"/>
<feComposite in2="hardAlpha" operator="arithmetic" k2="-1" k3="1"/>
<feColorMatrix type="matrix" values="0 0 0 0 1 0 0 0 0 1 0 0 0 0 1 0 0 0 0.25 0"/>
<feBlend mode="normal" in2="shape" result="effect1_innerShadow_1640_675"/>
</filter>
</defs>
</svg>
