<svg width="24" height="24" viewBox="0 0 24 24" fill="none" xmlns="http://www.w3.org/2000/svg">
<g clip-path="url(#clip0_3088_5057)">
<path d="M9.09326 10.7705L9.1001 10.7734L9.10693 10.7754C9.18434 10.8058 9.24932 10.8936 9.24951 11V17C9.24951 17.1339 9.13337 17.25 8.99951 17.25C8.86584 17.2498 8.74951 17.1337 8.74951 17V11.6035L7.17627 13.1768C7.08154 13.2715 6.91847 13.2715 6.82373 13.1768C6.72899 13.082 6.72899 12.919 6.82373 12.8242L8.82373 10.8242C8.89325 10.7547 9.00645 10.7333 9.09326 10.7705Z" fill="#318AE3" stroke="#318AE3"/>
<path d="M10.9999 13.7504C10.8099 13.7504 10.6199 13.6804 10.4699 13.5304L8.46994 11.5304C8.17994 11.2404 8.17994 10.7604 8.46994 10.4704C8.75994 10.1804 9.23994 10.1804 9.52994 10.4704L11.5299 12.4704C11.8199 12.7604 11.8199 13.2404 11.5299 13.5304C11.3799 13.6804 11.1899 13.7504 10.9999 13.7504Z" fill="#318AE3"/>
<path d="M15 22.75H9C3.57 22.75 1.25 20.43 1.25 15V9C1.25 3.57 3.57 1.25 9 1.25H14C14.41 1.25 14.75 1.59 14.75 2C14.75 2.41 14.41 2.75 14 2.75H9C4.39 2.75 2.75 4.39 2.75 9V15C2.75 19.61 4.39 21.25 9 21.25H15C19.61 21.25 21.25 19.61 21.25 15V10C21.25 9.59 21.59 9.25 22 9.25C22.41 9.25 22.75 9.59 22.75 10V15C22.75 20.43 20.43 22.75 15 22.75Z" fill="#318AE3"/>
<path d="M22 10.7505H18C14.58 10.7505 13.25 9.42048 13.25 6.00048V2.00048C13.25 1.70048 13.43 1.42048 13.71 1.31048C13.99 1.19048 14.31 1.26048 14.53 1.47048L22.53 9.47048C22.74 9.68048 22.81 10.0105 22.69 10.2905C22.57 10.5705 22.3 10.7505 22 10.7505ZM14.75 3.81048V6.00048C14.75 8.58048 15.42 9.25048 18 9.25048H20.19L14.75 3.81048Z" fill="#318AE3"/>
</g>
<defs>
<clipPath id="clip0_3088_5057">
<rect width="24" height="24" fill="white"/>
</clipPath>
</defs>
</svg>
