<svg width="34" height="34" viewBox="0 0 34 34" fill="none" xmlns="http://www.w3.org/2000/svg">
<path fill-rule="evenodd" clip-rule="evenodd" d="M14.9251 15.0835L6.92407 15.0926L4.73975 25.0523L13.0154 33.2479C13.6849 33.9175 14.7807 33.9172 15.4502 33.2477C16.1134 32.5844 16.1199 31.5024 15.4684 30.8313L17.7362 33.0992C18.4056 33.7688 19.5015 33.7685 20.171 33.099C20.8327 32.4373 20.8406 31.3587 20.1937 30.6874L21.5425 32.0363C22.2119 32.7059 23.3078 32.7056 23.9773 32.0361C24.6466 31.3667 24.647 30.2709 23.9773 29.6014L23.7762 29.4008C24.4459 30.0688 25.5405 30.0679 26.2095 29.3991C26.7774 28.8311 26.8636 27.9562 26.4677 27.2952L26.9326 27.0908L14.9251 15.0835Z" fill="#FFDDC4"/>
<path fill-rule="evenodd" clip-rule="evenodd" d="M11.292 31.5414L13.0154 33.2479C13.6849 33.9176 14.7807 33.9172 15.4502 33.2477L9.78284 27.5803C9.44569 27.2431 8.89402 27.2431 8.55694 27.5803C8.21979 27.9174 8.21979 28.4691 8.55694 28.8062L11.292 31.5414ZM15.5861 30.9661L13.2776 28.6576C12.9406 28.3205 12.9406 27.7688 13.2776 27.4317C13.6148 27.0946 14.1665 27.0946 14.5035 27.4317L20.1709 33.0991C19.5014 33.7686 18.4056 33.769 17.7361 33.0993L15.4683 30.8315C15.5104 30.8746 15.5495 30.9196 15.5861 30.9661ZM20.3076 30.8184C20.2721 30.7733 20.2342 30.7296 20.1936 30.6875L21.5424 32.0364C22.2118 32.706 23.3077 32.7057 23.9772 32.0361L18.3098 26.3687C17.9727 26.0315 17.421 26.0315 17.0839 26.3687C16.7468 26.7058 16.7468 27.2575 17.0839 27.5946L20.3076 30.8184ZM24.1132 29.7549C24.0715 29.7017 24.0262 29.6504 23.9772 29.6015L23.7761 29.4009C24.4457 30.0689 25.5404 30.068 26.2093 29.3991L20.5419 23.7317C20.2048 23.3946 19.6531 23.3946 19.316 23.7317C18.9789 24.0689 18.9789 24.6206 19.316 24.9576L24.1132 29.7549Z" fill="#FFC49A"/>
<path fill-rule="evenodd" clip-rule="evenodd" d="M4.63852 26.0557L7.17216 14.9933C7.33395 14.2868 6.88831 13.5764 6.18181 13.4146L4.14556 12.9482C3.43906 12.7864 2.72862 13.2321 2.56683 13.9386L0.0331886 25.001C-0.128601 25.7074 0.31704 26.4179 1.02354 26.5797L3.05979 27.046C3.76622 27.2079 4.47673 26.7622 4.63852 26.0557Z" fill="#F74169"/>
<path fill-rule="evenodd" clip-rule="evenodd" d="M26.8423 15.7386L25.447 16.3399C24.6103 16.7039 23.7326 16.6455 22.9357 16.2004C19.5522 14.3098 18.4141 13.2235 16.4816 13.946C15.9911 14.1294 15.4727 14.5394 14.925 15.0835C13.5315 16.4678 11.9484 18.7196 10.1527 20.3115C10.0786 20.3772 10.0389 20.4607 10.0347 20.5595C10.0304 20.6583 10.0628 20.7449 10.1309 20.8167C12.0731 22.8631 14.1581 21.7433 16.2261 20.3113C17.3759 19.515 18.897 19.6522 19.8859 20.6411L26.2093 26.9644C26.3107 27.0659 26.3968 27.1772 26.4675 27.2952L29.2158 26.0935L26.8423 15.7386Z" fill="#FFC49A"/>
<path fill-rule="evenodd" clip-rule="evenodd" d="M29.1115 26.0558C29.2732 26.7623 29.9838 27.2079 30.6902 27.0461L32.7264 26.5798C33.4328 26.418 33.8785 25.7075 33.7167 25.0011L31.1831 13.9387C31.0213 13.2323 30.3108 12.7866 29.6043 12.9483L27.5681 13.4147C26.8616 13.5765 26.416 14.287 26.5777 14.9935L29.1115 26.0558Z" fill="#37D1A5"/>
<path fill-rule="evenodd" clip-rule="evenodd" d="M10.3711 0C13.0185 0 15.1647 2.14622 15.1647 4.79363C15.1647 7.44103 13.0185 9.58725 10.3711 9.58725C10.1364 9.58725 9.90581 9.57009 9.68018 9.53747C9.15804 10.217 8.12339 11.0059 6.20231 10.7402C6.20231 10.7402 7.18711 10.0919 7.47166 8.61082C6.32065 7.73536 5.57751 6.35133 5.57751 4.79363C5.57751 2.14622 7.72373 0 10.3711 0Z" fill="#F3D24F"/>
<path fill-rule="evenodd" clip-rule="evenodd" d="M9.08493 6.76151C8.88742 6.57568 8.87793 6.26497 9.06377 6.06746C9.2496 5.86995 9.56031 5.86053 9.75782 6.04629C9.87285 6.15479 9.97101 6.23846 10.0656 6.28634C10.1439 6.32593 10.2388 6.3473 10.3711 6.3473C10.7262 6.3473 11.014 6.11379 11.014 5.82586C11.014 5.69108 10.9501 5.56662 10.8469 5.47437C10.7293 5.3694 10.5614 5.30436 10.3711 5.30436C9.47235 5.30436 8.74377 4.63013 8.74377 3.79847H8.74567C8.74567 3.37231 8.93524 2.98995 9.24159 2.71643C9.41814 2.55872 9.63337 2.43729 9.87201 2.36565L9.86737 2.17151C9.86104 1.90074 10.0754 1.67609 10.3461 1.66969C10.6169 1.66336 10.8415 1.87768 10.8479 2.14838L10.8534 2.37436C10.9586 2.40608 11.0644 2.44601 11.1644 2.49249C11.4176 2.61026 11.6542 2.78077 11.7877 2.98404C11.9364 3.21017 11.8735 3.51406 11.6474 3.6627C11.4213 3.81134 11.1174 3.74848 10.9687 3.52236C10.9439 3.4846 10.8585 3.43362 10.753 3.38454C10.6113 3.31866 10.4644 3.27704 10.3712 3.27704C10.181 3.27704 10.0131 3.34201 9.89542 3.44705C9.79101 3.54029 9.72632 3.66488 9.72632 3.79854H9.72822C9.72822 4.08654 10.0161 4.31998 10.3712 4.31998C10.8078 4.31998 11.2075 4.48198 11.5007 4.74376C11.8082 5.0184 11.9985 5.40083 11.9985 5.82579C11.9985 6.49601 11.5252 7.06386 10.8711 7.25911L10.8749 7.41556C10.8812 7.68633 10.6669 7.91098 10.3961 7.91738C10.1253 7.92371 9.9007 7.7094 9.8943 7.43862L9.89022 7.26833C9.79677 7.2414 9.70874 7.2061 9.62353 7.163C9.42335 7.06182 9.26106 6.92766 9.08493 6.76151Z" fill="#B0911B"/>
<path fill-rule="evenodd" clip-rule="evenodd" d="M23.379 0C20.7315 0 18.5853 2.14622 18.5853 4.79363C18.5853 7.44103 20.7315 9.58725 23.379 9.58725C23.6136 9.58725 23.8443 9.57009 24.0699 9.53747C24.5921 10.217 25.6267 11.0059 27.5478 10.7402C27.5478 10.7402 26.563 10.0919 26.2784 8.61082C27.4294 7.73536 28.1726 6.35133 28.1726 4.79363C28.1725 2.14622 26.0264 0 23.379 0Z" fill="#F3D24F"/>
<path fill-rule="evenodd" clip-rule="evenodd" d="M22.0927 6.76151C21.8952 6.57568 21.8857 6.26497 22.0716 6.06746C22.2574 5.86995 22.5681 5.86053 22.7656 6.04629C22.8807 6.15479 22.9788 6.23846 23.0735 6.28634C23.1517 6.32593 23.2466 6.3473 23.3789 6.3473C23.734 6.3473 24.0218 6.11379 24.0218 5.82586C24.0218 5.69108 23.9579 5.56662 23.8547 5.47437C23.7371 5.3694 23.5692 5.30436 23.3789 5.30436C22.4802 5.30436 21.7516 4.63013 21.7516 3.79847H21.7535C21.7535 3.37231 21.943 2.98995 22.2494 2.71643C22.426 2.55872 22.6412 2.43729 22.8798 2.36565L22.8752 2.17151C22.8689 1.90074 23.0832 1.67609 23.3539 1.66969C23.6247 1.66336 23.8494 1.87768 23.8558 2.14838L23.8612 2.37436C23.9664 2.40608 24.0723 2.44601 24.1722 2.49249C24.4254 2.61026 24.662 2.78077 24.7956 2.98404C24.9442 3.21017 24.8813 3.51406 24.6552 3.6627C24.429 3.81134 24.1251 3.74848 23.9765 3.52236C23.9517 3.4846 23.8662 3.43362 23.7607 3.38454C23.6191 3.31866 23.4721 3.27704 23.379 3.27704C23.1887 3.27704 23.0207 3.34201 22.9032 3.44705C22.7988 3.54029 22.7341 3.66488 22.7341 3.79854H22.736C22.736 4.08654 23.0238 4.31998 23.3789 4.31998C23.8155 4.31998 24.2152 4.48198 24.5084 4.74376C24.8159 5.0184 25.0062 5.40083 25.0062 5.82579C25.0062 6.49601 24.5329 7.06386 23.8788 7.25911L23.8826 7.41556C23.8889 7.68633 23.6746 7.91098 23.4039 7.91738C23.1331 7.92371 22.9084 7.7094 22.902 7.43862L22.898 7.26833C22.8045 7.2414 22.7165 7.2061 22.6313 7.163C22.4312 7.06182 22.2689 6.92766 22.0927 6.76151Z" fill="#B0911B"/>
</svg>
