<svg width="16" height="16" viewBox="0 0 16 16" fill="none" xmlns="http://www.w3.org/2000/svg">
<path d="M14.0599 4.65333C13.4933 4.02666 12.5466 3.71333 11.1733 3.71333H11.0133V3.68666C11.0133 2.56666 11.0133 1.17999 8.50661 1.17999H7.49328C4.98661 1.17999 4.98661 2.57333 4.98661 3.68666V3.71999H4.82661C3.44661 3.71999 2.50661 4.03333 1.93994 4.65999C1.27994 5.39333 1.29994 6.37999 1.36661 7.05333L1.37328 7.09999L1.4174 7.56327C1.43166 7.71305 1.51241 7.84849 1.63857 7.93047C1.79893 8.03467 2.02015 8.17566 2.15994 8.25333C2.25328 8.31333 2.35328 8.36666 2.45328 8.41999C3.59328 9.04666 4.84661 9.46666 6.11994 9.67333C6.17994 10.3 6.45328 11.0333 7.91328 11.0333C9.37328 11.0333 9.65994 10.3067 9.70661 9.65999C11.0666 9.43999 12.3799 8.96666 13.5666 8.27333C13.6066 8.25333 13.6333 8.23333 13.6666 8.21333C13.9104 8.07555 14.1625 7.90829 14.3964 7.74168C14.5099 7.66081 14.582 7.53458 14.5974 7.39607L14.5999 7.37333L14.6333 7.05999C14.6399 7.01999 14.6399 6.98666 14.6466 6.93999C14.6999 6.26666 14.6866 5.34666 14.0599 4.65333ZM8.72661 9.21999C8.72661 9.92666 8.72661 10.0333 7.90661 10.0333C7.08661 10.0333 7.08661 9.90666 7.08661 9.22666V8.38666H8.72661V9.21999ZM5.93994 3.71333V3.68666C5.93994 2.55333 5.93994 2.13333 7.49328 2.13333H8.50661C10.0599 2.13333 10.0599 2.55999 10.0599 3.68666V3.71999H5.93994V3.71333Z" fill="white"/>
<path d="M13.6456 9.28356C14.0003 9.11764 14.4077 9.39853 14.3723 9.78851L14.1601 12.1267C14.0201 13.46 13.4734 14.82 10.5401 14.82H5.46006C2.52672 14.82 1.98006 13.46 1.84006 12.1334L1.63935 9.92552C1.6043 9.54006 2.00224 9.25952 2.35586 9.41685C3.11559 9.75488 4.25608 10.2378 5.02976 10.454C5.19335 10.4997 5.32589 10.6181 5.40399 10.7689C5.82484 11.5817 6.68651 12.0134 7.91339 12.0134C9.12824 12.0134 9.99995 11.5651 10.4226 10.7492C10.5008 10.5982 10.6338 10.4798 10.7975 10.4337C11.6223 10.2013 12.8451 9.65803 13.6456 9.28356Z" fill="white"/>
</svg>
