<svg width="41" height="40" viewBox="0 0 41 40" fill="none" xmlns="http://www.w3.org/2000/svg">
<path d="M20.5 0C9.48 0 0.5 8.98 0.5 20C0.5 31.02 9.48 40 20.5 40C31.52 40 40.5 31.02 40.5 20C40.5 8.98 31.52 0 20.5 0ZM19 12C19 11.18 19.68 10.5 20.5 10.5C21.32 10.5 22 11.18 22 12V22C22 22.82 21.32 23.5 20.5 23.5C19.68 23.5 19 22.82 19 22V12ZM22.34 28.76C22.24 29.02 22.1 29.22 21.92 29.42C21.72 29.6 21.5 29.74 21.26 29.84C21.02 29.94 20.76 30 20.5 30C20.24 30 19.98 29.94 19.74 29.84C19.5 29.74 19.28 29.6 19.08 29.42C18.9 29.22 18.76 29.02 18.66 28.76C18.56 28.52 18.5 28.26 18.5 28C18.5 27.74 18.56 27.48 18.66 27.24C18.76 27 18.9 26.78 19.08 26.58C19.28 26.4 19.5 26.26 19.74 26.16C20.22 25.96 20.78 25.96 21.26 26.16C21.5 26.26 21.72 26.4 21.92 26.58C22.1 26.78 22.24 27 22.34 27.24C22.44 27.48 22.5 27.74 22.5 28C22.5 28.26 22.44 28.52 22.34 28.76Z" fill="url(#paint0_linear_3035_6830)"/>
<defs>
<linearGradient id="paint0_linear_3035_6830" x1="20.5" y1="-2.33333" x2="4.16667" y2="35" gradientUnits="userSpaceOnUse">
<stop stop-color="#FA5757"/>
<stop offset="1" stop-color="#C42727"/>
</linearGradient>
</defs>
</svg>
